<svg version="1.1" xmlns="http://www.w3.org/2000/svg" xmlns:xlink="http://www.w3.org/1999/xlink" width="360.51949" height="267.66969" viewBox="0,0,360.51949,267.66969"><g transform="translate(-34.41242,23.16969)"><g data-paper-data="{&quot;isPaintingLayer&quot;:true}" fill-rule="nonzero" stroke-linejoin="miter" stroke-miterlimit="10" stroke-dasharray="" stroke-dashoffset="0" style="mix-blend-mode: normal"><path d="M50.4505,208.6086c14.7904,7.7785 29.7883,5.3545 40.2134,-1.0835c5.3928,-3.3258 10.5681,-7.9653 14.2998,-14.7481c8.5845,-15.5743 4.5785,-31.0077 -3.6021,-40.9581c-4.2564,-5.1782 -10.8022,-9.9982 -19.2152,-11.652c-14.6807,-2.9028 -28.857,4.3471 -34.7061,17.8892c-3.4422,7.9785 -2.7795,15.1762 0.1246,21.6627c3.2682,7.3086 12.4794,15.9931 24.0341,14.9806c9.6443,-0.8332 21.806,-10.4687 19.0838,-23.5637c-0.9854,-4.7607 -4.911,-11.0135 -12.0326,-12.6472c-6.1094,-1.403 -12.83,1.8662 -14.5509,7.7996c-1.2713,4.3351 0.2645,7.9896 5.0073,9.8556c0.3731,-0.3815 -0.9473,-1.3542 -1.3283,-2.2445c-0.383,-0.9033 -0.5864,-2.2046 -0.3618,-3.3463c1.2336,-6.6621 8.0991,-7.2998 12.6818,-3.7171c3.7055,2.871 4.7667,8.5421 1.8493,13.5043c-2.9952,5.1218 -9.1119,7.6073 -14.7628,6.5228c-10.6152,-2.0467 -16.6007,-13.4121 -13.4113,-23.8038c3.475,-11.3094 14.5318,-16.6655 24.488,-15.6092c9.3298,0.9826 15.4035,6.559 19.166,12.4504c5.2764,8.2619 6.6888,20.8787 -1.3267,32.1286c-7.6425,10.7413 -22.5451,17.6915 -38.9884,10.8949c-5.5565,-2.2919 -8.9296,-4.9262 -12.3129,-8.4839c-6.0311,-6.3375 -10.0111,-14.1966 -10.3701,-24.4705c-0.3411,-10.1319 4.4898,-21.8871 11.4102,-28.7906c6.4531,-6.4494 14.6317,-10.7852 23.5776,-12.0571c9.8901,-1.4245 21.2247,0.7494 30.5446,7.0961c7.6677,5.209 13.7085,12.7638 17.1303,20.9114c3.2547,7.7372 4.5121,19.0444 2.0953,28.9621l-1.7276,5.5322c-9.2599,20.4683 -25.1657,31.4618 -44.4876,32.436c-10.6295,0.5168 -22.721,-2.3623 -31.9724,-8.3601c-0.9722,-0.6377 1.2733,-8.6835 9.4507,-7.0908z" fill="#003fff" stroke="none" stroke-width="1.54571" stroke-linecap="butt"/><text transform="translate(42.2786,83.15841) scale(4.63932,4.63932)" font-size="22" xml:space="preserve" fill="#003fff" fill-rule="nonzero" stroke="none" stroke-width="1" stroke-linecap="butt" stroke-linejoin="miter" stroke-miterlimit="10" stroke-dasharray="" stroke-dashoffset="0" font-family="Marker" font-weight="400" text-anchor="start" style="mix-blend-mode: normal"><tspan x="0" dy="0">N</tspan></text><text transform="translate(105.959,77.61883) scale(4.47949,4.47949)" font-size="22" xml:space="preserve" fill="#003fff" fill-rule="nonzero" stroke="none" stroke-width="1" stroke-linecap="butt" stroke-linejoin="miter" stroke-miterlimit="10" stroke-dasharray="" stroke-dashoffset="0" font-family="Marker" font-weight="400" text-anchor="start" style="mix-blend-mode: normal"><tspan x="0" dy="0">E</tspan></text><text transform="translate(156.846,76.75335) scale(3.42291,3.42291)" font-size="22" xml:space="preserve" fill="#003fff" fill-rule="nonzero" stroke="none" stroke-width="1" stroke-linecap="butt" stroke-linejoin="miter" stroke-miterlimit="10" stroke-dasharray="" stroke-dashoffset="0" font-family="Marker" font-weight="400" text-anchor="start" style="mix-blend-mode: normal"><tspan x="0" dy="0">w</tspan></text><path d="M138,126h108v111h-108z" fill="none" stroke="#00ffff" stroke-width="15" stroke-linecap="butt"/><path d="M137,127h113v115h-113z" fill="#00ffff" stroke="none" stroke-width="1" stroke-linecap="round"/><path d="M129,163l60,-15l66,15v35h-126z" fill="#ff0000" stroke="none" stroke-width="1" stroke-linecap="round"/><path d="M130,171h123v26h-123z" fill="#ff9400" stroke="none" stroke-width="1" stroke-linecap="butt"/><path d="M129,178h124v20h-124z" fill="#ffff00" stroke="none" stroke-width="1" stroke-linecap="round"/><path d="M128,186h127v15h-127z" fill="#00ff55" stroke="none" stroke-width="1" stroke-linecap="butt"/><path d="M129,192h126v14h-126z" fill="#003fff" stroke="none" stroke-width="1" stroke-linecap="round"/><path d="M128,199h126v11l-67,-5l-59,5z" fill="#7f00ff" stroke="none" stroke-width="1" stroke-linecap="round"/><path d="M138.5,147c2.069,0 3.944,2.633 5.302,6.887c1.358,4.255 2.198,10.13 2.198,16.613c0,6.483 -0.84,12.358 -2.198,16.613c-1.358,4.254 -3.233,6.887 -5.302,6.887c-2.069,0 -3.944,-2.633 -5.302,-6.887c-1.358,-4.255 -2.198,-10.13 -2.198,-16.613c0,-6.483 0.84,-12.358 2.198,-16.613c1.358,-4.254 3.233,-6.887 5.302,-6.887z" fill="#ffffff" stroke="none" stroke-width="1" stroke-linecap="butt"/><path d="M135,150c2.483,0 4.733,3.586 6.362,9.379c1.63,5.792 2.638,13.792 2.638,22.621c0,8.829 -1.008,16.829 -2.638,22.621c-1.629,5.793 -3.879,9.379 -6.362,9.379c-2.483,0 -4.733,-3.586 -6.362,-9.379c-1.63,-5.792 -2.638,-13.792 -2.638,-22.621c0,-8.829 1.008,-16.829 2.638,-22.621c1.629,-5.793 3.879,-9.379 6.362,-9.379z" fill="#ffffff" stroke="none" stroke-width="1" stroke-linecap="butt"/><path d="M135,190c1.379,0 2.629,1.961 3.535,5.129c0.905,3.168 1.465,7.543 1.465,12.371c0,4.828 -0.56,9.203 -1.465,12.371c-0.906,3.168 -2.156,5.129 -3.535,5.129c-1.379,0 -2.629,-1.961 -3.535,-5.129c-0.905,-3.168 -1.465,-7.543 -1.465,-12.371c0,-4.828 0.56,-9.203 1.465,-12.371c0.906,-3.168 2.156,-5.129 3.535,-5.129z" fill="#ffffff" stroke="none" stroke-width="1" stroke-linecap="butt"/><path d="M247,150c2.483,0 4.733,1.625 6.362,4.25c1.63,2.625 2.638,6.25 2.638,10.25c0,4 -1.008,7.625 -2.638,10.25c-1.629,2.625 -3.879,4.25 -6.362,4.25c-2.483,0 -4.733,-1.625 -6.362,-4.25c-1.63,-2.625 -2.638,-6.25 -2.638,-10.25c0,-4 1.008,-7.625 2.638,-10.25c1.629,-2.625 3.879,-4.25 6.362,-4.25z" fill="#ffffff" stroke="none" stroke-width="1" stroke-linecap="butt"/><path d="M250,164c1.379,0 2.629,1.905 3.535,4.982c0.905,3.078 1.465,7.328 1.465,12.018c0,4.69 -0.56,8.94 -1.465,12.018c-0.906,3.077 -2.156,4.982 -3.535,4.982c-1.379,0 -2.629,-1.905 -3.535,-4.982c-0.905,-3.078 -1.465,-7.328 -1.465,-12.018c0,-4.69 0.56,-8.94 1.465,-12.018c0.906,-3.077 2.156,-4.982 3.535,-4.982z" fill="#ffffff" stroke="none" stroke-width="1" stroke-linecap="butt"/><path d="M247.5,186c2.897,0 5.522,2.353 7.423,6.155c1.9,3.801 3.077,9.051 3.077,14.845c0,5.794 -1.177,11.044 -3.077,14.845c-1.901,3.802 -4.526,6.155 -7.423,6.155c-2.897,0 -5.522,-2.353 -7.423,-6.155c-1.9,-3.801 -3.077,-9.051 -3.077,-14.845c0,-5.794 1.177,-11.044 3.077,-14.845c1.901,-3.802 4.526,-6.155 7.423,-6.155z" fill="#ffffff" stroke="none" stroke-width="1" stroke-linecap="butt"/><path d="M277,124h113v115h-113z" fill="#003aff" stroke="none" stroke-width="1" stroke-linecap="round"/><path d="M273.37435,240c0,0 27.13389,-24.87117 33.98286,-37.12722c5.53627,-9.907 4.01714,-30.87278 4.01714,-30.87278h42c0,0 4.92961,26.45669 11.31448,37.54621c6.28006,10.90746 26.68552,28.45379 26.68552,28.45379z" fill="#aa0000" stroke="none" stroke-width="0" stroke-linecap="butt"/><path d="M320.37435,173v-42h6v42z" fill="#ff0000" stroke="none" stroke-width="0" stroke-linecap="butt"/><path d="M340.37435,172v-41h6v41z" fill="#ff0000" stroke="none" stroke-width="0" stroke-linecap="butt"/><path d="M352.83686,213.71575c-0.00732,0.09503 -0.01615,0.18977 -0.02643,0.28425h0.06391v5c0,1.38071 -1.11929,2.5 -2.5,2.5c-1.38071,0 -2.5,-1.11929 -2.5,-2.5v-4.76994c-0.12669,-0.50561 -0.27302,-1.00273 -0.4366,-1.49238c-0.409,-0.8162 -0.73464,-1.66767 -1.02698,-2.55548c-1.73954,-3.72687 -4.31166,-7.09265 -6.50643,-10.61722c-0.31226,-0.50146 -0.63157,-1.0149 -0.93436,-1.54014c0.17641,4.50029 0.48063,9.24487 -0.14816,13.4849c-0.04682,0.31572 -0.10656,0.62856 -0.17631,0.93919c1.44346,4.34306 3.85344,10.56706 1.98209,14.63404c-0.82883,1.80128 -2.98232,2.60965 -4.48908,3.90278l-3.05751,2.84108c-0.44679,0.41757 -1.04688,0.67316 -1.70667,0.67316c-1.38071,0 -2.5,-1.11929 -2.5,-2.5v-4h0.04203c-0.00403,-0.15715 -0.00319,-0.31473 0.00308,-0.47277c0.06933,-1.74948 1.41395,-3.21315 1.91786,-4.88992c0.96297,-3.20428 1.11893,-6.61127 2.03728,-9.82862c0.08375,-0.2934 0.22735,-0.56697 0.38268,-0.83607c-1.81174,-6.12974 -3.16819,-12.26068 -4.02238,-18.60329c-0.28877,0.36139 -0.56983,0.7243 -0.83245,1.09245c-0.86569,1.21359 -1.1311,2.7887 -2,4c-0.88012,1.22694 -2.16957,2.10385 -3.18205,3.22407c-1.09223,1.20846 -2.05705,2.527 -3.12643,3.75572c-0.42998,0.49405 -1.23362,0.76867 -1.36895,1.4095c-0.30693,1.45338 0.28671,2.97719 0.13059,4.45439c-0.02049,0.19387 -2.00313,8.08275 -2.08097,8.39351l-0.06368,0.0799l0.03509,0.0117l-0.98177,2.94531c-0.31417,1.02156 -1.26534,1.76412 -2.38994,1.76412c-1.38071,0 -2.5,-1.11929 -2.5,-2.5v-5c-0.58588,-3.06535 0.70399,-5.63649 1.58098,-8.51411c0.93108,-3.05512 1.57796,-5.792 2.78194,-8.35296c-0.22396,-0.37463 -0.35266,-0.81276 -0.35266,-1.28096c0,-0.06664 0.00261,-0.13267 0.00773,-0.19799l0.34401,-4.96292l0.03955,0.00274l-0.02839,-0.12214c1.34097,-8.0738 3.33202,-15.48941 5.7374,-23.30688c0,0 0.73521,-2.38945 3.12466,-1.65423c0.82894,0.25506 1.28183,0.70921 1.51981,1.19362l0.26017,-2.08135c0.13791,-1.25027 1.19778,-2.22282 2.48481,-2.22282c1.38071,0 2.5,1.11929 2.5,2.5v3l-0.08564,0l0.07836,0.19063c-0.02923,0.19277 -0.09308,0.61454 -0.17733,1.17049c0.39391,-0.04219 0.80359,-0.04111 1.21759,-0.00833c-0.03298,-0.2132 -0.03298,-0.35279 -0.03298,-0.35279c0,-4.69014 0.60538,-10.25479 0.10249,-15.2892c-0.06669,-0.2253 -0.10249,-0.46387 -0.10249,-0.7108v-0.18653c-0.18569,-1.43725 -0.47279,-2.82304 -0.90285,-4.12333c-0.43113,-1.30352 -1.31484,-2.41373 -1.87775,-3.666c-1.27843,-2.84408 -2.23709,-5.84375 -3.75231,-8.56905c-0.23835,-0.4287 -0.46164,-0.98109 -0.9238,-1.14539c-3.58928,-1.27603 -6.6211,1.82208 -8.74312,3.96438c-3.99981,4.03803 -8.29392,9.00389 -11.12957,13.96627c-1.60252,2.80441 -2.46677,5.97044 -3.70907,8.95196c-3.2816,7.76019 -2.96164,16.52867 -2.96154,24.80769c0.00004,2.80017 0.51176,5.65364 -0.03228,8.40046c-1.40627,7.1002 -4.0224,13.28806 -7.23165,19.71758l-1.4683,1.64973c0,0 -1.76777,1.76777 -3.53553,0c-1.76777,-1.76777 0,-3.53553 0,-3.53553l0.5317,-0.35027c3.02102,-6.03226 5.36464,-11.63834 6.76835,-18.28242c0.8019,-3.79557 -0.06255,-8.75199 -0.03215,-12.62475c0.05768,-7.34864 0.52359,-14.84662 3.34603,-21.70557c0.1507,-0.36168 3.88178,-9.33203 3.98324,-9.50958c3.01581,-5.27766 7.61459,-10.81971 11.95476,-15.04051c1.93295,-1.87979 4.39122,-3.90699 7.12109,-4.96525c-1.10682,-0.98401 -2.2523,-1.89533 -3.6297,-2.36116c-1.98188,-0.67027 -4.18356,0.13439 -6.27554,0.10727c-1.42551,-0.01848 -2.89344,-0.45688 -4.27554,-0.10727c-1.03864,0.26273 -1.67057,1.36851 -2.62608,1.85306c-1.8956,0.96128 -3.94611,1.65099 -5.71163,2.83434c-2.13121,1.42845 -4.8433,2.2782 -6.34309,4.35983c-0.51083,0.70901 -0.39178,1.71267 -0.73396,2.51675c-0.53194,1.25 -1.5032,2.31152 -1.87658,3.61767c-0.25893,0.90581 0.22294,1.903 0.0346,2.82607c-0.33976,1.66517 -1.25531,3.17683 -1.59901,4.84118c-1.06753,5.1695 -0.74643,10.9683 -1.41624,16.24352c-2.50716,9.23713 -3.95247,17.93339 -3.95247,27.51484v2c0,0 0,2.5 -2.5,2.5c-2.5,0 -2.5,-2.5 -2.5,-2.5v-2c0,-9.89638 1.43294,-18.94736 4.04753,-28.48516c0.65003,-5.29397 0.37987,-11.07239 1.42148,-16.26965c0.32107,-1.60202 1.23616,-3.04485 1.56327,-4.64565c0.21182,-1.03662 -0.25596,-2.15657 0.0346,-3.17393c0.44576,-1.56082 1.48104,-2.89162 2.12342,-4.38233c0.4889,-1.13454 0.52859,-2.4921 1.26604,-3.48325c1.08069,-1.45247 6.39208,-4.80104 7.65691,-5.64017c1.95553,-1.29736 4.18412,-2.12675 6.28837,-3.16566c1.19528,-0.59014 2.08001,-1.82636 3.37392,-2.14694c0.43117,-0.10683 8.44539,-0.12503 9.72446,-0.10727c1.24188,0.01725 2.54515,-0.28232 3.72446,0.10727c1.44099,0.47604 6.81575,4.67318 7.77554,5.39273c0,0 0.78175,0.58631 1.00119,1.51456c0.15165,0.05387 0.3035,0.1124 0.45552,0.17574c2.85821,1.19081 4.40283,5.28065 5.4703,7.65069c0.51415,1.14155 1.07098,2.26719 1.6185,3.39652c0.15216,-2.11326 -0.06416,-4.28323 0.52137,-6.31189c1.28369,-4.44754 4.18265,-9.39063 8.27798,-11.14851c0.52398,-1.75877 1.33114,-3.30082 2.63766,-4.26388c3.29374,-2.42787 8.14277,-1.30557 11.68468,-0.87456c6.22302,0.75727 10.65656,4.162 15.35249,8.07675c1.65892,1.38295 5.41661,4.95406 6.22655,6.15273c0.46802,0.69265 -0.00051,1.76977 0.46447,2.46447c0.87373,1.3054 2.50006,1.9819 3.38173,3.28195c3.90685,5.76072 4.50806,15.03626 4.90651,21.81299c0.00111,5.35748 0.00105,10.71496 0.00105,16.07243v1c0,0 0,2.5 -2.5,2.5c-2.5,0 -2.5,-2.5 -2.5,-2.5v-1c0,-5.30919 -0.00008,-10.61838 0.00105,-15.92757c-0.31964,-5.59501 -0.68286,-14.37742 -4.02242,-19.11594c-1.01553,-1.44094 -2.71397,-2.32069 -3.68933,-3.78912c-0.46253,-0.69634 -0.00621,-1.76531 -0.46447,-2.46447c-0.18736,-0.28585 -4.23492,-4.00423 -5.03583,-4.67139c-3.91851,-3.2641 -7.54441,-6.3057 -12.72292,-6.92912c-1.28978,-0.15527 -6.4327,-1.23104 -8.04859,-0.11564c-0.0021,0.00145 -0.0042,0.00291 -0.00629,0.00438c0.53376,0.16044 1.07912,0.37423 1.63556,0.64584c1.74965,0.85401 2.66156,2.84262 3.96402,4.28975c1.8947,2.10515 3.63218,4.38019 5.05698,6.82794c2.32209,3.98926 5.46795,7.98742 7.15049,12.30953c3.33232,8.56001 5.21421,18.30925 7.20687,27.27441c1.6553,7.5675 1.58588,14.79581 4.68458,22.10037c1.22432,2.88608 2.88562,9.07335 6.98585,9.06868c1.27898,-0.00146 2.52205,-0.42716 3.78307,-0.64074l2.57421,-1.90547c0,0 2.03855,-1.44717 3.48572,0.59138c1.44717,2.03855 -0.59138,3.48572 -0.59138,3.48572l-3.56185,2.45054c-2.02696,0.33442 -4.02781,1.07621 -6.08087,1.00325c-5.41469,-0.19242 -8.09041,-5.27606 -10.07513,-9.4464c-2.67931,-5.62984 -4.52508,-11.57605 -5.21715,-17.7996c-0.28997,-2.60762 -0.28914,-5.26404 -0.86798,-7.82308c-1.93472,-8.70803 -3.75583,-18.16391 -6.96244,-26.48747c-1.57763,-4.09514 -4.66154,-7.91236 -6.84951,-11.69047c-1.69201,-2.92172 -4.30435,-7.3048 -7.11506,-9.23831c-0.22284,-0.15329 -0.4702,-0.29219 -0.73135,-0.40724c-0.33105,2.46336 -0.41651,5.09205 -0.51096,5.75378c0,0 -0.19914,1.39397 -1.34469,1.94011c-0.18577,0.29745 -0.36242,0.4741 -0.36242,0.4741c-2.17942,2.17942 -4.30625,4.36638 -5.69108,6.90496c-0.13582,1.5716 -0.36181,3.15327 -0.89471,4.73108l-0.65979,4.61853c0.43645,4.43318 0.12446,9.15947 0.01307,13.52078c0.15058,-0.02831 0.30593,-0.04312 0.46474,-0.04312c0.81791,0 1.54408,0.39278 2.00018,1c1.38063,0.0001 2.49982,1.11935 2.49982,2.5l0,2.64958c0.70209,1.71637 1.40204,3.43354 2.09894,5.15196c0.84373,0.73373 1.71655,1.42839 2.65493,2.03564c0.06914,0.04474 0.14215,0.08532 0.21839,0.12237l0.055,-0.33001c0.179,-1.20503 1.21791,-2.12954 2.47274,-2.12954c1.12793,0 2.0814,0.74697 2.39271,1.77321l0.83695,2.54351c0.19905,0.60491 3.26509,9.84464 3.24638,10.12985c-0.50401,7.68488 -2.05204,9.14874 -7.1588,5.61657c0.84785,2.63612 1.69309,5.27307 2.53278,7.9117c0.54455,1.7112 1.73675,3.34604 1.61981,5.13798c-0.00063,0.00967 -0.00128,0.01934 -0.00194,0.029c0.00447,0.01756 0.00893,0.03514 0.01337,0.05272zM324.85326,186.91695c-0.88336,0.17478 -1.64141,0.27171 -2.28877,0.3021c-0.33018,2.23354 -0.75419,4.44486 -1.43102,6.39326c0.16729,-0.11483 0.32649,-0.23969 0.47311,-0.38008c1.47906,-1.41623 1.50997,-3.83958 2.64114,-5.54656c0.18106,-0.27323 0.38563,-0.52724 0.60554,-0.76872zM350.95878,195.96058c-0.24414,-0.86981 -0.50539,-1.73348 -0.7774,-2.5937c-0.25318,0.0863 -0.52464,0.13313 -0.80704,0.13313c-0.10757,0 -0.21355,-0.00679 -0.31754,-0.01998c0.52065,0.89857 1.34457,1.60387 1.90197,2.48055zM324.96922,176.65917c-0.14938,-0.60263 -0.18007,-1.23478 -0.13028,-1.86693c-0.09682,0.32615 -0.19283,0.6518 -0.28802,0.97702c0.20589,0.36333 0.32343,0.78331 0.32343,1.23074l0,0.27344c0.02957,-0.19194 0.06139,-0.39793 0.09487,-0.61427zM325.43007,181.68519c0.03043,-0.68756 -0.31851,-1.33346 -0.55572,-1.99344v0.97356c0.24519,0.71489 0.53523,1.48295 0.55572,1.01988zM337.8201,184.06705l-1.0194,4.35621c-0.00773,0.03653 -0.01627,0.07277 -0.02558,0.1087c0.52985,0.08538 1.00398,0.33727 1.36699,0.70028l0,0l2.52796,2.52796c-0.87242,-2.59867 -1.80383,-5.17282 -2.84998,-7.69315zM337.53197,183.38119c-0.01483,0.03989 -0.02972,0.07977 -0.04467,0.11964l0.10593,0.02479c-0.02038,-0.04816 -0.0408,-0.09631 -0.06126,-0.14443zM336.07557,222.1612c-0.27286,1.34435 -0.59698,2.6648 -1.10803,3.89139c0.4809,-0.29452 0.89942,-0.64341 1.15355,-1.13556c0.42394,-0.821 0.18049,-1.80552 -0.04552,-2.75583zM340.53663,136.25482c-0.02192,0.03751 -0.04357,0.07504 -0.06496,0.11261c0.04487,-0.04506 0.08984,-0.09012 0.13491,-0.13519c0,0 0.14124,-0.14124 0.38379,-0.30395c0.01703,-0.15056 0.03343,-0.30469 0.04941,-0.46206c-0.2717,0.41673 -0.46052,0.71562 -0.50316,0.78859z" fill="#ff0000" stroke="none" stroke-width="0.5" stroke-linecap="butt"/></g></g></svg>