<svg xmlns="http://www.w3.org/2000/svg" xmlns:xlink="http://www.w3.org/1999/xlink" version="1.1" width="208.23598668696337" height="288.5423831713384" viewBox="0.48652936159643656 4.986530792107911 208.23598668696337 288.5423831713384">
  <defs>
    <radialGradient id="grad_1" cx="0.619" cy="0.1679" r="1.08173">
      <stop offset="0" stop-color="#6600CC" stop-opacity="1"/>
      <stop offset="1" stop-color="#CC99FF" stop-opacity="1"/>
    </radialGradient>
  <radialGradient id="grad_1-.2315433025360107,2.045137643814087,-2.045137643814087,2.2315433025360107,123.95,27.5" cx="171.895" cy="106.4529" r="151.1397" gradientUnits="userSpaceOnUse">
      <stop offset="0" stop-color="#6600CC" stop-opacity="1"/>
      <stop offset="1" stop-color="#CC99FF" stop-opacity="1"/>
    </radialGradient></defs>
  
  <g id="ID0.8989200172945857">
    <g id="ID0.731854968238622">
      <path id="ID0.2018452570773661" fill="#808285" d="M 140.3369 286.43 C 140.3055 289.5914 136.4654 292.079 131.7579 292.0142 L 131.7579 292.0142 C 127.0712 291.9357 123.3189 289.3099 123.3679 286.1562 L 125.1921 175.8822 C 125.2433 172.7307 129.083 170.2345 133.7635 170.3197 L 133.7635 170.3197 C 138.4731 170.3823 142.2319 173.01 142.1658 176.1643 L 140.3369 286.43 Z " stroke-width="3.026941276807127"/>
      <path id="ID0.6619617058895528" fill="#9D9EA4" d="M 133.3645 285.3242 C 133.3239 288.4731 130.7279 290.9922 127.5594 290.9461 L 127.5594 290.9461 C 124.4013 290.893 121.8949 288.2922 121.946 285.1406 L 123.7681 174.8645 C 123.8174 171.7195 126.422 169.2 129.5565 169.252 L 129.5565 169.252 C 132.7316 169.3042 135.2399 171.8986 135.1763 175.0593 L 133.3645 285.3242 Z " stroke-width="3.026941276807127"/>
      <path id="ID0.5195719399489462" fill="#BCBDBF" opacity="0.6" d="M 91.2497 149.037 C 79.3052 122.2827 79.2243 93.6894 90.799 70.2269 C 71.6374 82.4168 58.7467 103.655 58.3472 128.0594 C 57.7042 166.64 88.4473 198.4322 127.0303 199.0815 C 127.7227 199.092 128.3895 199.0051 129.0645 199.0078 C 113.2855 185.2408 100.0663 168.8105 91.2497 149.037 Z " stroke-width="3.026941276807127"/>
      <path id="ID0.1176141444593668" fill="#FFFFFF" d="M 190.266 153.038 C 195.1165 128.9067 185.4562 108.7007 172.0421 96.6452 C 165.1003 90.3941 156.3775 85.0112 145.2474 82.5463 C 119.6576 76.8724 99.5012 88.9471 88.8375 104.6551 C 83.28 112.8114 79.1864 124.0789 80.3448 136.6493 C 82.3351 158.6207 98.4748 175.6499 120.0501 178.2852 C 132.756 179.8416 142.6582 175.9094 150.6147 169.1182 C 159.6004 161.4595 168.0514 144.8282 161.8153 128.9142 C 156.6235 115.624 137.9582 102.4348 120.579 111.7255 C 114.2556 115.0905 107.0438 123.2375 107.692 133.9812 C 108.2376 143.2062 115.669 151.3512 124.7577 151.3171 C 131.4162 151.314 135.9562 147.6325 136.6132 140.1462 C 135.9179 139.7759 135.1065 142.05 134.0064 142.9592 C 132.8828 143.8716 131.1256 144.6959 129.4207 144.8538 C 119.4882 145.8801 115.7328 136.448 118.8945 128.4733 C 121.4145 122.0455 128.9846 118.1849 137.2221 120.2489 C 145.7039 122.3644 151.7513 129.9677 152.569 138.4074 C 154.0895 154.2699 140.5046 167.4443 124.4932 167.2681 C 107.0615 167.0467 94.8865 153.6346 92.2531 139.1253 C 89.7732 125.5327 95.1315 114.6236 101.893 106.8605 C 111.3802 95.962 128.6368 88.727 147.8704 95.3913 C 166.2202 101.7343 182.2514 119.9123 179.4759 145.9863 C 178.5313 154.7899 176.2054 160.6565 172.5768 166.9141 C 166.1243 178.0809 156.6693 186.964 142.3007 191.7423 C 128.1168 196.4354 109.483 194.4881 96.8521 187.5724 C 85.0473 181.1306 75.5336 171.3645 70.0243 159.2451 C 63.8852 145.8506 62.2562 128.9238 67.3512 113.105 C 71.5406 100.1023 79.7126 88.4256 89.8072 80.2066 C 99.39 72.389 114.8546 65.9177 129.8873 65.2174 L 138.4291 65.3636 C 171.2108 69.9549 193.3473 87.8732 202.7448 114.7814 C 207.8984 129.6007 208.8542 147.8937 204.2196 163.461 C 203.7166 165.0941 191.4007 165.2581 190.266 153.038 Z " stroke-width="3.026941276807127"/>
      <path id="ID0.08684117253869772" fill="url(#grad_1-.2315433025360107,2.045137643814087,-2.045137643814087,2.2315433025360107,123.95,27.5)" d="M 190.3616 153.0681 C 195.214 128.9303 185.5522 108.7393 172.1247 96.6716 C 165.1896 90.4266 156.4772 85.0369 145.3322 82.5747 C 119.7536 76.911 99.5949 88.9837 88.9223 104.6836 C 83.3733 112.8394 79.2752 124.1029 80.443 136.69 C 82.4266 158.6553 98.5704 175.68 120.1463 178.3281 C 132.8453 179.8742 142.7499 175.9482 150.7166 169.1459 C 159.6941 161.4962 168.1471 144.8626 161.9111 128.9485 C 156.7319 115.6536 138.056 102.467 120.6833 111.7595 C 114.3514 115.1249 107.1395 123.2718 107.792 134.0154 C 108.3328 143.2277 115.7583 151.3837 124.8578 151.3513 C 131.514 151.3461 136.0449 147.6522 136.7173 140.1759 C 136.0159 139.8123 135.1895 142.085 134.0957 142.9918 C 132.9766 143.9082 131.2193 144.7325 129.5099 144.8863 C 119.5771 145.9041 115.8323 136.4694 118.9945 128.5075 C 121.5074 122.065 129.0779 118.2129 137.3136 120.2834 C 145.7883 122.3842 151.8558 130.006 152.6713 138.4436 C 154.1831 154.3022 140.6028 167.485 124.5908 167.296 C 107.1571 167.0768 94.991 153.6729 92.3572 139.1551 C 89.8582 125.5655 95.223 114.6582 101.9949 106.8882 C 111.4784 96.0028 128.7411 88.761 147.9619 95.4259 C 166.3117 101.7689 182.3384 119.9428 179.5696 146.0229 C 178.6271 154.8243 176.3051 160.6822 172.6706 166.9507 C 166.224 178.1065 156.7671 186.9962 142.3875 191.7685 C 128.2081 196.4657 109.5827 194.5138 96.9503 187.6131 C 85.1472 181.1605 75.6273 171.4012 70.118 159.2818 C 63.9871 145.8783 62.3499 128.9604 67.4471 113.1437 C 71.6365 100.141 79.8043 88.4645 89.9052 80.243 C 99.488 72.4255 114.9612 65.9537 129.9853 65.2539 L 138.5181 65.3919 C 154.7087 67.662 168.2965 73.1841 179.0444 81.4288 C 166.5814 68.2414 149.0163 59.8953 129.4355 59.5683 C 90.8742 58.9267 59.0853 89.6975 58.442 128.2695 C 57.8015 166.8564 88.5528 198.6397 127.1272 199.2893 C 155.7871 199.7541 180.695 182.9025 191.8707 158.3969 C 191.0967 156.9567 190.5532 155.2022 190.3616 153.0681 Z " stroke-width="3.026941276807127"/>
    </g>
  </g>
  <text id="ID0.8922871989198029" fill="#FF00BF" text-anchor="start" font-family="Marker" font-size="22" transform="matrix(1 0 0 1 2 -5.4)" stroke-width="1" alignment-baseline="text-before-edge" xml:space="preserve"><tspan x="0" style="white-space: pre" dy="1.45em">Sounds Confusing?</tspan></text>
</svg>