<svg xmlns="http://www.w3.org/2000/svg" xmlns:xlink="http://www.w3.org/1999/xlink" version="1.1" width="174" height="168" viewBox="-0.5 61.5 174 168">
  
  <path id="ID0.7460681954398751" fill="#000000" stroke="none" d="M 0 62 L 173 62 L 173 195 L 0 195 L 0 62 Z " stroke-width="1"/>
  <path id="ID0.555239790584892" fill="#666666" stroke="none" d="M 13 75 L 157 75 L 157 176 L 13 176 L 13 75 Z " stroke-width="1"/>
  <path id="ID0.4233261253684759" fill="#000000" stroke="none" d="M 70 177 L 102 177 L 102 226 L 70 226 L 70 177 Z " stroke-width="1"/>
  <path id="ID0.8587298453785479" fill="#000000" stroke="none" d="M 3 219 L 170 219 L 170 229 L 3 229 L 3 219 Z " stroke-width="1"/>
  <path id="ID0.9377633207477629" fill="#FF00BF" stroke="none" stroke-linecap="round" d="M 21 91 L 149 100 L 149 146 L 20 153 L 21 91 Z " stroke-width="1"/>
  <text id="ID0.5457801334559917" fill="#FFFF00" text-anchor="start" font-family="Handwriting" font-size="22" transform="matrix(4.89064 0 0 4.89064 25.7813 -53.6971)" stroke-width="1" alignment-baseline="text-before-edge" xml:space="preserve"><tspan x="0" style="white-space: pre" dy="2em">i</tspan></text>
  <text id="ID0.7453722478821874" fill="#00FFFF" text-anchor="start" font-family="Sans Serif" font-size="22" transform="matrix(1.93252 0 0 1.93252 52.865 88.4525)" stroke-width="1" alignment-baseline="text-before-edge" xml:space="preserve"><tspan x="0" style="white-space: pre" dy="1.13em">Carly</tspan></text>
</svg>